<svg width="24" height="24" viewBox="0 0 24 24" fill="none" xmlns="http://www.w3.org/2000/svg">
<path d="M4.80005 5.2998H19.2004C19.6851 5.29981 20.1516 5.48486 20.5042 5.81738C20.7787 6.07638 20.9663 6.41025 21.05 6.77344L11.9993 11.2988L2.94849 6.77344C3.03217 6.41013 3.22075 6.07645 3.49536 5.81738C3.84807 5.48465 4.31516 5.29972 4.80005 5.2998Z" fill="#27272A" stroke="#27272A"/>
<path d="M21.5999 9.7417L11.9999 14.5417L2.3999 9.7417V16.8001C2.3999 17.4366 2.65276 18.0471 3.10285 18.4972C3.55293 18.9472 4.16338 19.2001 4.7999 19.2001H19.1999C19.8364 19.2001 20.4469 18.9472 20.897 18.4972C21.347 18.0471 21.5999 17.4366 21.5999 16.8001V9.7417Z" fill="#27272A"/>
</svg>
