<svg width="24" height="24" viewBox="0 0 24 24" fill="none" xmlns="http://www.w3.org/2000/svg">
<path d="M11.9995 2.8999C14.413 2.8999 16.7285 3.85836 18.4351 5.56494C20.1415 7.27142 21.1 9.58623 21.1001 11.9995C21.1001 14.413 20.1416 16.7285 18.4351 18.4351C16.7285 20.1416 14.413 21.1001 11.9995 21.1001C9.58623 21.1 7.27142 20.1415 5.56494 18.4351C3.85836 16.7285 2.8999 14.413 2.8999 11.9995C2.90001 9.58618 3.85845 7.27143 5.56494 5.56494C7.27143 3.85845 9.58618 2.90001 11.9995 2.8999ZM11.9995 15.1001C11.5488 15.1002 11.1161 15.2794 10.7974 15.5981C10.4788 15.9169 10.3003 16.3496 10.3003 16.8003C10.3004 17.251 10.4786 17.6837 10.7974 18.0024C11.1161 18.3212 11.5488 18.4994 11.9995 18.4995C12.4502 18.4995 12.8829 18.321 13.2017 18.0024C13.5204 17.6837 13.6996 17.251 13.6997 16.8003C13.6997 16.3494 13.5205 15.917 13.2017 15.5981C12.8828 15.2793 12.4504 15.1001 11.9995 15.1001ZM11.9995 5.49951C11.5488 5.49962 11.1161 5.67884 10.7974 5.99756C10.4787 6.31631 10.3003 6.74895 10.3003 7.19971V11.9995C10.3003 12.4502 10.4788 12.8829 10.7974 13.2017C11.1161 13.5204 11.5488 13.6996 11.9995 13.6997C12.4504 13.6997 12.8828 13.5205 13.2017 13.2017C13.5205 12.8828 13.6997 12.4504 13.6997 11.9995V7.19971C13.6997 6.74891 13.5204 6.31632 13.2017 5.99756C12.8829 5.67893 12.4502 5.49951 11.9995 5.49951Z" fill="#E02424" stroke="#E02424"/>
</svg>
